<svg xmlns="http://www.w3.org/2000/svg" width="1920" height="924" viewBox="0 0 1920 924"><rect width="100%" height="100%" fill="#DDDDDD"/><path fill="#999999" d="m619.05 328.75-15.21 28.83q-2.72 4.77-5.79 6.92-3.06 2.16-7.6 2.16-4.77 0-10.33-3.52-5.56-3.52-13.28-7.83-7.72-4.31-18.05-7.83-10.33-3.52-24.4-3.52-12.71 0-22.25 3.06-9.53 3.07-16 8.52-6.47 5.44-9.65 13.05-3.18 7.6-3.18 16.68 0 11.58 6.47 19.3 6.47 7.72 17.14 13.16 10.67 5.45 24.29 9.76 13.62 4.32 27.92 9.2 14.3 4.88 27.92 11.35 13.62 6.47 24.29 16.34 10.67 9.88 17.14 24.18 6.47 14.3 6.47 34.73 0 22.24-7.6 41.65-7.61 19.41-22.25 33.83-14.64 14.41-35.75 22.7-21.11 8.28-48.35 8.28-15.67 0-30.88-3.06-15.2-3.07-29.17-8.74-13.96-5.68-26.21-13.62-12.26-7.95-21.8-17.71l17.94-29.28q2.27-3.18 5.9-5.34 3.63-2.15 7.72-2.15 5.67 0 12.26 4.65 6.58 4.65 15.66 10.33 9.08 5.67 21.22 10.33 12.15 4.65 29.17 4.65 26.11 0 40.41-12.37 14.3-12.37 14.3-35.52 0-12.94-6.47-21.12-6.47-8.17-17.14-13.73-10.67-5.56-24.29-9.42-13.62-3.86-27.69-8.4-14.08-4.54-27.7-10.9-13.62-6.35-24.28-16.57-10.67-10.21-17.14-25.53-6.47-15.33-6.47-37.8 0-17.93 7.15-34.96 7.15-17.02 20.77-30.19 13.62-13.16 33.59-21.11 19.98-7.94 45.86-7.94 29.05 0 53.57 9.08t41.77 25.42Zm153.22 60.84q25.88 0 47.11 8.39 21.22 8.4 36.32 23.84 15.09 15.44 23.26 37.68 8.18 22.25 8.18 49.71 0 27.7-8.18 49.94-8.17 22.25-23.26 37.91-15.1 15.67-36.32 24.07-21.23 8.4-47.11 8.4-26.1 0-47.44-8.4-21.34-8.4-36.43-24.07-15.1-15.66-23.38-37.91-8.29-22.24-8.29-49.94 0-27.46 8.29-49.71 8.28-22.24 23.38-37.68 15.09-15.44 36.43-23.84 21.34-8.39 47.44-8.39Zm0 196.8q29.06 0 43.02-19.52 13.96-19.52 13.96-57.2 0-37.68-13.96-57.43t-43.02-19.75q-29.51 0-43.69 19.86-14.19 19.86-14.19 57.32 0 37.45 14.19 57.09 14.18 19.63 43.69 19.63Zm260.83-196.8q25.87 0 47.1 8.39 21.22 8.4 36.32 23.84 15.09 15.44 23.27 37.68 8.17 22.25 8.17 49.71 0 27.7-8.17 49.94-8.18 22.25-23.27 37.91-15.1 15.67-36.32 24.07-21.23 8.4-47.1 8.4-26.11 0-47.45-8.4-21.33-8.4-36.43-24.07-15.1-15.66-23.38-37.91-8.29-22.24-8.29-49.94 0-27.46 8.29-49.71 8.28-22.24 23.38-37.68 15.1-15.44 36.43-23.84 21.34-8.39 47.45-8.39Zm0 196.8q29.05 0 43.01-19.52 13.96-19.52 13.96-57.2 0-37.68-13.96-57.43t-43.01-19.75q-29.51 0-43.7 19.86-14.19 19.86-14.19 57.32 0 37.45 14.19 57.09 14.19 19.63 43.7 19.63Zm206.34-182.96 3.86 18.39q7.04-7.04 14.87-13.05 7.83-6.02 16.57-10.22 8.74-4.2 18.73-6.58 9.98-2.38 21.79-2.38 19.07 0 33.82 6.47 14.76 6.47 24.63 18.16 9.87 11.69 14.98 27.92 5.11 16.23 5.11 35.75v148.23h-56.07V477.89q0-21.34-9.76-33.03-9.76-11.69-29.74-11.69-14.53 0-27.24 6.58-12.71 6.59-24.06 17.94v168.43h-56.07v-232.9h34.28q10.89 0 14.3 10.21Zm217.47-105.55h52.66v129.84q0 20.66-2.04 40.52-2.05 19.86-5.22 42.11h-38.14q-3.18-22.25-5.22-42.11-2.04-19.86-2.04-40.52V297.88Zm-8.86 297.37q0-7.04 2.61-13.4 2.61-6.35 7.27-10.89 4.65-4.54 11.01-7.27 6.35-2.72 13.62-2.72 7.03 0 13.39 2.72 6.36 2.73 11.01 7.27 4.65 4.54 7.38 10.89 2.72 6.36 2.72 13.4 0 7.26-2.72 13.5-2.73 6.25-7.38 10.79-4.65 4.54-11.01 7.15-6.36 2.61-13.39 2.61-7.27 0-13.62-2.61-6.36-2.61-11.01-7.15-4.66-4.54-7.27-10.79-2.61-6.24-2.61-13.5Z"/></svg>